<svg viewBox="0 0 153 146" fill="none" xmlns="http://www.w3.org/2000/svg"><title>AWS Amplify</title><path d="M95.3248 143.923C95.6707 144.579 96.31 144.983 97.0018 144.983H112.066C113.557 144.983 114.489 143.217 113.743 141.804L59.0224 38.0977C58.277 36.6851 56.4137 36.6851 55.6684 38.0977L47.6267 53.3383C47.596 53.3964 47.596 53.4679 47.6267 53.5259L47.6363 53.5442C47.698 53.6611 47.6209 53.8072 47.4976 53.8072C47.4403 53.8072 47.3874 53.8406 47.3588 53.8949L0.938888 141.909C0.193893 143.322 1.12558 145.087 2.61607 145.087H73.1751C74.6658 145.087 75.5974 143.321 74.8521 141.909L67.6346 128.23C67.2887 127.575 66.6495 127.171 65.9576 127.171H29.8692C29.1238 127.171 28.658 126.288 29.0307 125.582L56.5003 73.5215C56.873 72.8152 57.8047 72.8152 58.1773 73.5215L95.3248 143.923Z" fill="var(--amplify-colors-font-interactive)"></path><path d="M67.6531 15.3842C67.3072 16.0398 67.3072 16.8475 67.6531 17.5031L134.359 143.923C134.705 144.579 135.344 144.983 136.036 144.983H151.061C152.551 144.983 153.483 143.217 152.738 141.804L78.5196 1.14657C77.7743 -0.26598 75.911 -0.265977 75.1656 1.14657L67.6531 15.3842Z" fill="var(--amplify-colors-font-interactive)"></path></svg>